<svg xmlns="http://www.w3.org/2000/svg" xmlns:xlink="http://www.w3.org/1999/xlink" width="140" height="60" viewBox="0 0 140 60">
  <defs>
    <filter id="Rectangle" x="0" y="0" width="140" height="60" filterUnits="userSpaceOnUse">
      <feOffset input="SourceAlpha"/>
      <feGaussianBlur stdDeviation="5" result="blur"/>
      <feFlood flood-color="#edd53f" flood-opacity="0.702"/>
      <feComposite operator="in" in2="blur"/>
      <feComposite in="SourceGraphic"/>
    </filter>
  </defs>
  <g id="Tag_Electric" data-name="Tag/Electric" transform="translate(10 10)">
    <g id="Group_4" data-name="Group 4" transform="translate(5 5)">
      <g transform="matrix(1, 0, 0, 1, -15, -15)" filter="url(#Rectangle)">
        <rect id="Rectangle-2" data-name="Rectangle" width="110" height="30" rx="15" transform="translate(15 15)" fill="#edd53f"/>
      </g>
      <text id="ELECTRIC" transform="translate(24 7)" fill="#fff" font-size="12" font-family="SegoeUI, Segoe UI"><tspan x="-24.653" y="13">ELECTRIC</tspan></text>
      <path id="Path_5" data-name="Path 5" d="M1.963.584A.44.44,0,0,1,2.379,0H7.086a.44.44,0,0,1,.42.31L9.824,7.8a.44.44,0,0,1-.42.57H6.522a.22.22,0,0,0-.212.28l1.443,5.08a.44.44,0,0,1-.775.385L.53,5.534a.44.44,0,0,1,.352-.7H3.124a.22.22,0,0,0,.208-.292Z" transform="translate(14 7)" fill="#fff"/>
    </g>
  </g>
</svg>
