<svg xmlns="http://www.w3.org/2000/svg" xmlns:xlink="http://www.w3.org/1999/xlink" width="140" height="60" viewBox="0 0 140 60">
  <defs>
    <filter id="Rectangle" x="0" y="0" width="140" height="60" filterUnits="userSpaceOnUse">
      <feOffset input="SourceAlpha"/>
      <feGaussianBlur stdDeviation="5" result="blur"/>
      <feFlood flood-color="#559edf" flood-opacity="0.702"/>
      <feComposite operator="in" in2="blur"/>
      <feComposite in="SourceGraphic"/>
    </filter>
  </defs>
  <g id="Tag_Water" data-name="Tag/Water" transform="translate(10 10)">
    <g id="Group_4" data-name="Group 4" transform="translate(5 5)">
      <g transform="matrix(1, 0, 0, 1, -15, -15)" filter="url(#Rectangle)">
        <rect id="Rectangle-2" data-name="Rectangle" width="110" height="30" rx="15" transform="translate(15 15)" fill="#559edf"/>
      </g>
      <text id="Water" transform="translate(24 7)" fill="#fff" font-size="12" font-family="SegoeUI, Segoe UI"><tspan x="-18.577" y="13">WATER</tspan></text>
      <path id="Oval_5" data-name="Oval 5" d="M5,15a5,5,0,0,1-5-4.982L4.549.518a.5.5,0,0,1,.9,0L10,10.019A5,5,0,0,1,5,15ZM2.064,10.038c0,.028-.406,2.816,2.1,3.365a4.212,4.212,0,0,0,.9.1,4.1,4.1,0,0,0,3.078-1.474l-.01,0a7.435,7.435,0,0,1-2.39.442,4.223,4.223,0,0,1-1.311-.192A4.284,4.284,0,0,1,2.064,10.038Z" transform="translate(14 7)" fill="#fff"/>
    </g>
  </g>
</svg>
